<svg width="28" height="28" viewBox="0 0 28 28" fill="none" xmlns="http://www.w3.org/2000/svg">
<path d="M23.3333 4.66675H4.66668C3.37984 4.66675 2.33334 5.71325 2.33334 7.00008V21.0001C2.33334 22.2869 3.37984 23.3334 4.66668 23.3334H23.3333C24.6202 23.3334 25.6667 22.2869 25.6667 21.0001V7.00008C25.6667 5.71325 24.6202 4.66675 23.3333 4.66675ZM23.3333 7.00008V7.59625L14 14.8564L4.66668 7.59742V7.00008H23.3333ZM4.66668 21.0001V10.5514L13.2837 17.2539C13.4937 17.4184 13.7468 17.5001 14 17.5001C14.2532 17.5001 14.5063 17.4184 14.7163 17.2539L23.3333 10.5514L23.3357 21.0001H4.66668Z" fill="#6366F1"/>
</svg>
