<svg width="48" height="56" viewBox="0 0 48 56" fill="none" xmlns="http://www.w3.org/2000/svg">
<path fill-rule="evenodd" clip-rule="evenodd" d="M46.0608 9.74399C45.645 7.50912 44.3216 6.40785 43.125 5.97483C41.8341 5.50639 39.2165 5.02115 35.9276 4.63196C33.2816 4.31912 30.1716 4.34402 28.293 4.40232C28.0676 2.85192 26.9844 1.43559 25.7724 0.945234C22.5433 -0.359705 17.554 -0.0444499 16.2731 0.315979C15.2551 0.601601 14.1285 1.18703 13.5014 2.08897C13.0809 2.69149 12.8088 3.46341 12.8067 4.5418C12.8067 5.15214 12.8236 6.5899 12.8391 7.86723C12.8519 8.93413 12.8656 9.90715 12.8699 10.2076L12.8699 10.2081L12.8712 10.3025C12.8706 11.4433 11.9497 12.3718 10.8083 12.3733H5.5727C4.45599 12.3733 3.60261 12.5617 2.95085 12.859C2.29803 13.1566 1.83567 13.5578 1.48436 14.0325C0.785003 14.9749 0.663669 16.138 0.666553 17.3249C0.666553 17.3249 0.676841 18.2948 0.909606 20.172C1.10305 21.6245 2.67203 31.7716 4.16236 34.8576C4.74009 36.0583 5.12505 36.5584 6.26023 37.0876C8.7895 38.1748 14.5667 39.3842 17.2744 39.7306C17.7223 39.7881 18.1425 39.8561 18.5365 39.9199L18.5366 39.9199C20.5206 40.2412 21.8411 40.455 22.6846 38.6795C22.6879 38.6743 22.8871 38.15 23.161 37.3811C24.0387 34.7109 24.1609 32.3417 24.1609 30.6273C24.1609 30.4529 24.4156 30.4449 24.4156 30.6273C24.4156 30.6946 24.4149 30.7715 24.4141 30.8568V30.8568C24.4007 32.3047 24.3647 36.185 27.4082 37.2702C28.6805 37.7232 31.3198 38.1271 34.0015 38.4426C36.4264 38.7224 38.1861 39.6805 38.1861 45.9263C38.1861 49.7263 37.3912 50.2472 33.2353 50.2472L32.9261 50.2474C29.7874 50.25 28.5823 50.251 28.5823 47.6478C28.5823 45.661 30.3728 45.6823 31.8918 45.7003C32.0332 45.702 32.1723 45.7036 32.3074 45.7036C32.7531 45.7036 32.7147 45.4941 32.625 45.0047C32.5722 44.7166 32.5016 44.3314 32.5016 43.8349C32.5016 43.2699 32.6507 42.806 32.7628 42.4574C32.9151 41.9838 32.9989 41.7233 32.5465 41.712C27.0637 41.5605 23.8375 41.7057 23.8375 48.59C23.8375 54.8398 26.2198 56.0004 34.0015 56.0004C40.1028 56.0004 42.2536 55.7998 44.7729 47.9519C45.2716 46.4027 46.4771 41.6747 47.2068 33.7364C47.6679 28.717 46.7717 13.5676 46.0608 9.74399ZM35.425 26.49C34.6712 26.4636 33.9462 26.5114 33.2701 26.6204C33.4604 25.0777 34.0946 23.1846 36.3415 23.2638C38.8288 23.3498 39.1773 25.7099 39.1862 27.3086C38.1374 26.8392 36.8391 26.5399 35.425 26.49ZM5.33041 10.8484H5.32695C4.04131 10.8484 2.96728 11.0684 2.0815 11.4697C2.0412 11.4873 1.75839 11.6278 1.54847 11.7321L1.54281 11.7349C1.54857 11.7131 1.56098 11.6918 1.58088 11.6753L11.7522 1.54887C11.7721 1.52889 11.7922 1.51904 11.8122 1.51567L11.6332 1.85322C11.2585 2.60477 11.0435 3.50179 11.0435 4.53057V4.54534C11.0435 5.75065 11.1023 9.96672 11.1068 10.2852L11.107 10.3043C11.1064 10.6031 10.8652 10.8484 10.5652 10.8484H5.33041Z" fill="#20C05C"/>
</svg>
