<svg width="113" height="44" viewBox="0 0 113 44" fill="none" xmlns="http://www.w3.org/2000/svg">
<path d="M13.029 13.4766V9.97656H1.729V34.0236H13.029V30.5236C10.7142 30.5236 8.49416 29.6256 6.85738 28.0271C5.22057 26.4286 4.30102 24.2607 4.30102 22.0001C4.30102 19.7395 5.22057 17.5715 6.85738 15.9731C8.49416 14.3746 10.7142 13.4766 13.029 13.4766Z" fill="#B4B7C9"/>
<path d="M13.0288 13.4766V30.5236C15.3436 30.5236 17.5637 29.6256 19.2005 28.0271C20.8373 26.4286 21.7568 24.2607 21.7568 22.0001C21.7568 19.7395 20.8373 17.5715 19.2005 15.9731C17.5637 14.3746 15.3436 13.4766 13.0288 13.4766Z" fill="#B4B7C9"/>
<path d="M28.0981 15.6177H30.628V27.5177H28.0981V15.6177Z" fill="#B4B7C9"/>
<path d="M32.0448 23.4411C32.0448 22.585 32.3052 21.7481 32.7927 21.0366C33.2803 20.325 33.9733 19.7709 34.7837 19.4444C35.5942 19.1179 36.4856 19.0337 37.3451 19.2026C38.2046 19.3714 38.9934 19.7856 39.6115 20.3927C40.2297 20.9999 40.6494 21.7726 40.8173 22.6129C40.9852 23.4532 40.894 24.3233 40.555 25.1129C40.216 25.9024 39.6447 26.576 38.9133 27.048C38.1819 27.5201 37.3235 27.7695 36.4468 27.7646C35.8653 27.7691 35.2888 27.6601 34.751 27.444C34.2133 27.228 33.725 26.9093 33.315 26.5067C32.905 26.104 32.5815 25.6254 32.3633 25.099C32.1453 24.5726 32.037 24.0089 32.0448 23.4411ZM38.3863 23.4411C38.3764 23.072 38.2552 22.7139 38.038 22.4118C37.8207 22.1095 37.5172 21.8766 37.165 21.742C36.8129 21.6074 36.4281 21.5772 36.0585 21.6552C35.6889 21.7331 35.3511 21.9157 35.0872 22.1802C34.8234 22.4446 34.6452 22.7792 34.575 23.142C34.5049 23.5049 34.5458 23.8798 34.6927 24.22C34.8396 24.5602 35.0859 24.8507 35.4009 25.0548C35.7159 25.2591 36.0855 25.368 36.4636 25.3682C36.7211 25.3731 36.9768 25.3261 37.2148 25.2301C37.4527 25.1341 37.6678 24.9912 37.8467 24.8104C38.0256 24.6295 38.1643 24.4145 38.2543 24.179C38.3442 23.9434 38.3835 23.6922 38.3695 23.4411H38.3863Z" fill="#B4B7C9"/>
<path d="M50.8582 19.3646V27.114C50.8582 29.8481 48.6656 31.0093 46.4478 31.0093C45.6655 31.072 44.8808 30.9202 44.1822 30.571C43.4834 30.2218 42.8983 29.6891 42.4928 29.0328L44.6263 27.8305C44.7992 28.1709 45.0742 28.4517 45.4147 28.6356C45.7552 28.8195 46.145 28.8978 46.5321 28.8599C46.7788 28.8895 47.0291 28.8657 47.2651 28.7899C47.5012 28.714 47.7172 28.5883 47.8977 28.4214C48.0782 28.2546 48.2187 28.0509 48.3092 27.8249C48.3997 27.5989 48.4379 27.3561 48.4211 27.114V26.3646C48.1267 26.7132 47.7531 26.9899 47.3301 27.1729C46.9071 27.3559 46.4462 27.44 45.984 27.4187C44.8657 27.4187 43.7933 26.9849 43.0026 26.2127C42.2118 25.4405 41.7676 24.3931 41.7676 23.3011C41.7676 22.209 42.2118 21.1617 43.0026 20.3895C43.7933 19.6173 44.8657 19.1834 45.984 19.1834C46.4462 19.1621 46.9071 19.2463 47.3301 19.4292C47.7531 19.6122 48.1267 19.8889 48.4211 20.2375V19.414L50.8582 19.3646ZM48.4211 23.2764C48.4379 22.8824 48.3336 22.4924 48.1217 22.1568C47.9098 21.8211 47.6 21.555 47.2319 21.3927C46.8639 21.2304 46.4546 21.1793 46.0566 21.246C45.6587 21.3127 45.2901 21.4942 44.9986 21.767C44.7071 22.0398 44.5058 22.3916 44.4206 22.7771C44.3355 23.1626 44.3703 23.5641 44.5206 23.9301C44.6711 24.2961 44.9301 24.6097 45.2645 24.8308C45.599 25.0518 45.9934 25.1701 46.3972 25.1705C46.6607 25.189 46.9253 25.1533 47.1737 25.0659C47.4222 24.9783 47.6492 24.8409 47.8399 24.6624C48.0307 24.4839 48.1809 24.2683 48.281 24.0296C48.3811 23.7908 48.4288 23.5342 48.4211 23.2764Z" fill="#B4B7C9"/>
<path d="M52.2835 23.4412C52.2835 22.5857 52.5434 21.7495 53.0302 21.0383C53.5171 20.3271 54.209 19.773 55.0184 19.446C55.8279 19.119 56.7185 19.0339 57.5775 19.2014C58.4366 19.3689 59.2254 19.7815 59.8443 20.3869C60.4631 20.9925 60.8841 21.7636 61.0539 22.6028C61.2238 23.442 61.1349 24.3116 60.7986 25.1015C60.4622 25.8914 59.8934 26.566 59.1643 27.0401C58.4351 27.5142 57.5783 27.7664 56.7023 27.7648C56.1198 27.7703 55.5419 27.6621 55.0027 27.4467C54.4635 27.2313 53.9737 26.9129 53.5622 26.5102C53.1506 26.1075 52.8255 25.6286 52.6059 25.1016C52.3864 24.5746 52.2768 24.0101 52.2835 23.4412ZM58.625 23.4412C58.615 23.0718 58.4936 22.7134 58.276 22.411C58.0585 22.1087 57.7543 21.8757 57.4017 21.7414C57.0491 21.6071 56.6638 21.5773 56.2941 21.656C55.9243 21.7345 55.5865 21.918 55.3229 22.1833C55.0594 22.4485 54.8819 22.7839 54.8128 23.1472C54.7435 23.5106 54.7856 23.8858 54.9338 24.2258C55.0819 24.5659 55.3296 24.8557 55.6458 25.059C55.9618 25.2621 56.3323 25.3698 56.7107 25.3683C56.9682 25.3732 57.2239 25.3262 57.4618 25.2302C57.6998 25.1342 57.9149 24.9914 58.0938 24.8105C58.2727 24.6297 58.4114 24.4146 58.5014 24.1791C58.5913 23.9435 58.6306 23.6923 58.6166 23.4412H58.625Z" fill="#B4B7C9"/>
<path d="M62.2935 17.1824C62.2935 16.8926 62.3815 16.6091 62.5464 16.368C62.7114 16.127 62.9458 15.9391 63.2201 15.8281C63.4944 15.7172 63.7962 15.6882 64.0874 15.7447C64.3785 15.8013 64.646 15.9409 64.8559 16.1459C65.0658 16.3509 65.2088 16.6121 65.2667 16.8964C65.3246 17.1808 65.2949 17.4755 65.1813 17.7434C65.0677 18.0112 64.8752 18.2402 64.6284 18.4013C64.3816 18.5623 64.0914 18.6483 63.7945 18.6483C63.3977 18.644 63.0185 18.4882 62.738 18.2142C62.4574 17.9402 62.2978 17.5699 62.2935 17.1824ZM62.538 19.3648H65.0679V27.5177H62.538V19.3648Z" fill="#B4B7C9"/>
<path d="M75.8956 23.4411C75.924 23.9833 75.8423 24.5257 75.6551 25.0369C75.4681 25.5482 75.1793 26.0182 74.8054 26.42C74.4315 26.8219 73.98 27.1476 73.4768 27.3783C72.9736 27.6091 72.4286 27.7403 71.8732 27.7646C71.4019 27.7953 70.9295 27.7216 70.4915 27.549C70.0535 27.3764 69.661 27.1095 69.3433 26.7682V30.7952H66.8135V19.3646H69.3433V20.1305C69.6614 19.7901 70.0542 19.5245 70.4923 19.3533C70.9304 19.1821 71.4025 19.11 71.8732 19.1423C72.4264 19.1666 72.9692 19.2971 73.4707 19.5263C73.9722 19.7555 74.4226 20.079 74.7961 20.4781C75.1697 20.8773 75.459 21.3444 75.6476 21.8528C75.8363 22.3612 75.9206 22.9009 75.8956 23.4411ZM73.3658 23.4411C73.3558 23.0586 73.2304 22.6875 73.0054 22.3743C72.7805 22.0611 72.4657 21.8196 72.1009 21.6804C71.736 21.541 71.3371 21.5101 70.9542 21.5912C70.5713 21.6723 70.2215 21.8621 69.9485 22.1365C69.6756 22.411 69.4917 22.7581 69.4199 23.1342C69.348 23.5104 69.3915 23.8988 69.5448 24.251C69.6981 24.603 69.9544 24.9031 70.2816 25.1136C70.6088 25.3241 70.9923 25.4355 71.3841 25.434C71.6524 25.4452 71.9201 25.4008 72.1697 25.3038C72.4193 25.2067 72.645 25.0593 72.8322 24.8712C73.0193 24.683 73.1635 24.4582 73.2555 24.2118C73.3475 23.9654 73.385 23.7027 73.3658 23.4411Z" fill="#B4B7C9"/>
<path d="M83.5945 25.0717C83.5945 26.9493 81.908 27.7481 80.1202 27.7481C79.391 27.8122 78.659 27.6613 78.0186 27.3148C77.3782 26.9683 76.8589 26.4423 76.5278 25.8046L78.7035 24.6023C78.7897 24.8961 78.9766 25.1521 79.2329 25.3275C79.4893 25.503 79.7995 25.587 80.1118 25.5658C80.7105 25.5658 81.0141 25.3846 81.0141 25.0552C81.0141 24.1576 76.9073 24.6352 76.9073 21.8105C76.9073 20.0317 78.4421 19.1423 80.1792 19.1423C80.8395 19.1134 81.4956 19.2597 82.0776 19.5656C82.6596 19.8716 83.1459 20.3258 83.4849 20.8799L81.3092 21.9999C81.2131 21.7874 81.0561 21.6068 80.8571 21.4796C80.658 21.3524 80.4255 21.2843 80.1877 21.2834C79.7492 21.2834 79.4878 21.4481 79.4878 21.7364C79.4878 22.6752 83.5945 22.0576 83.5945 25.0717Z" fill="#B4B7C9"/>
<path d="M92.7611 19.3647V27.5177H90.2313V26.7518C89.9437 27.0909 89.5785 27.3591 89.1662 27.5351C88.753 27.7111 88.3035 27.7897 87.8532 27.7647C86.1666 27.7647 84.7246 26.5871 84.7246 24.3883V19.3647H87.2545V24.0177C87.2342 24.2122 87.2578 24.4086 87.3236 24.5934C87.3894 24.7781 87.4948 24.9468 87.6331 25.0878C87.7722 25.2287 87.9409 25.3385 88.1273 25.4098C88.3136 25.4809 88.5135 25.5117 88.7133 25.5C89.6241 25.5 90.265 24.973 90.265 23.853V19.3647H92.7611Z" fill="#B4B7C9"/>
<path d="M107.097 22.5107V27.5177H104.567V22.7248C104.567 21.9012 104.171 21.3907 103.37 21.3907C102.569 21.3907 102.063 21.9589 102.063 22.9224V27.5177H99.5329V22.7248C99.5329 21.9012 99.1366 21.3907 98.3355 21.3907C97.5344 21.3907 97.0284 21.9589 97.0284 22.9224V27.5177H94.4985V19.3648H97.0284V20.1142C97.2906 19.7831 97.6322 19.5209 98.0243 19.3513C98.4156 19.1816 98.8448 19.1098 99.2715 19.1424C99.6991 19.1206 100.126 19.2079 100.509 19.3956C100.891 19.5833 101.218 19.865 101.456 20.213C101.734 19.8493 102.102 19.5604 102.525 19.3733C102.947 19.186 103.413 19.1066 103.876 19.1424C105.849 19.1424 107.097 20.4765 107.097 22.5107Z" fill="#B4B7C9"/>
<path d="M109.222 19.3154C110.247 19.3154 111.077 18.5042 111.077 17.5037C111.077 16.5031 110.247 15.6919 109.222 15.6919C108.197 15.6919 107.367 16.5031 107.367 17.5037C107.367 18.5042 108.197 19.3154 109.222 19.3154Z" fill="#B4B7C9"/>
</svg>
