<svg width="113" height="44" viewBox="0 0 113 44" fill="none" xmlns="http://www.w3.org/2000/svg">
<path d="M18.0951 20.697C17.7892 21.002 17.5549 21.3702 17.409 21.7751C17.2631 22.1802 17.2091 22.6121 17.2508 23.0402L17.2363 23.0258C17.2792 23.5297 17.2106 24.0367 17.0354 24.5117C16.8602 24.9866 16.5825 25.4178 16.2218 25.7754C15.861 26.133 15.4259 26.4082 14.9467 26.5818C14.4675 26.7555 13.9559 26.8235 13.4476 26.781L13.4621 26.7954C12.854 26.7393 12.2432 26.8704 11.713 27.171C11.1829 27.4715 10.7591 27.9268 10.4996 28.4748C10.2401 29.0228 10.1574 29.6367 10.2628 30.233C10.3683 30.8293 10.6567 31.3788 11.0888 31.8066C11.5208 32.2345 12.0755 32.5198 12.6771 32.6238C13.2789 32.7278 13.8982 32.6452 14.4508 32.3875C15.0035 32.1298 15.4624 31.7094 15.7652 31.1837C16.0679 30.6579 16.1997 30.0525 16.1426 29.4498L16.1579 29.4642C16.115 28.9603 16.1835 28.4532 16.3588 27.9782C16.534 27.5034 16.8117 27.0721 17.1724 26.7145C17.5332 26.357 17.9684 26.0817 18.4475 25.9081C18.9267 25.7344 19.4382 25.6664 19.9467 25.709L19.9313 25.6946C20.428 25.7388 20.9281 25.6581 21.385 25.4598C21.8418 25.2616 22.2409 24.9522 22.545 24.5605C22.8492 24.1687 23.0487 23.7071 23.1249 23.2186C23.2011 22.7301 23.1518 22.2304 22.9813 21.7658C22.8108 21.3012 22.5248 20.8868 22.1497 20.561C21.7746 20.2351 21.3226 20.0084 20.8356 19.9018C20.3485 19.7953 19.8422 19.8122 19.3636 19.9512C18.885 20.0902 18.4495 20.3467 18.0975 20.697H18.0951Z" fill="#B4B7C9"/>
<path d="M12.141 24.9088L12.1257 24.8944C12.5577 24.9376 12.9941 24.885 13.4032 24.7405C13.8123 24.596 14.1839 24.3633 14.4911 24.0591C14.7982 23.7548 15.0334 23.3867 15.1794 22.9813C15.3255 22.576 15.3789 22.1436 15.3357 21.7152L15.351 21.7296C15.3081 21.2257 15.3767 20.7187 15.5518 20.2437C15.7271 19.7688 16.0048 19.3376 16.3655 18.98C16.7263 18.6224 17.1614 18.3472 17.6406 18.1736C18.1198 17.9999 18.6313 17.9319 19.1397 17.9744L19.1244 17.96C19.7326 18.0167 20.3435 17.8859 20.874 17.5857C21.4045 17.2855 21.8286 16.8304 22.0885 16.2825C22.3484 15.7346 22.4314 15.1206 22.3263 14.5242C22.2213 13.9278 21.9331 13.3781 21.5011 12.9499C21.0692 12.5218 20.5145 12.2362 19.9128 12.132C19.3111 12.0278 18.6916 12.1102 18.1388 12.3678C17.586 12.6254 17.1269 13.0458 16.824 13.5715C16.521 14.0973 16.3892 14.7029 16.4463 15.3056L16.4318 15.2904C16.4748 15.7944 16.4064 16.3015 16.2312 16.7765C16.0561 17.2515 15.7783 17.6828 15.4176 18.0404C15.0568 18.398 14.6216 18.6732 14.1424 18.8468C13.6631 19.0204 13.1515 19.0883 12.643 19.0456L12.6576 19.0608C12.2255 19.0177 11.7891 19.0703 11.38 19.2148C10.971 19.3592 10.5994 19.592 10.2922 19.8962C9.98497 20.2004 9.74985 20.5686 9.60375 20.974C9.45774 21.3793 9.40439 21.8117 9.44757 22.24L9.43304 22.2256C9.47582 22.7295 9.40713 23.2365 9.2319 23.7114C9.05659 24.1862 8.77893 24.6175 8.41822 24.975C8.05748 25.3325 7.6224 25.6077 7.14331 25.7815C6.66422 25.9552 6.15266 26.0232 5.64431 25.9808L5.65884 25.9952C5.05068 25.9386 4.43969 26.0693 3.90923 26.3696C3.37878 26.6698 2.95466 27.1248 2.69476 27.6728C2.43484 28.2207 2.35177 28.8347 2.45688 29.4311C2.562 30.0275 2.85018 30.5772 3.28211 31.0053C3.71404 31.4335 4.26869 31.7191 4.87043 31.8232C5.47216 31.9274 6.09167 31.8451 6.64445 31.5875C7.19723 31.3299 7.65639 30.9096 7.95928 30.3838C8.2622 29.858 8.39409 29.2524 8.33694 28.6496L8.35228 28.664C8.30934 28.1601 8.37795 27.6531 8.55318 27.1781C8.72833 26.7032 9.00606 26.272 9.36678 25.9144C9.72757 25.5568 10.1627 25.2816 10.6418 25.108C11.121 24.9343 11.6326 24.8663 12.141 24.9088Z" fill="#B4B7C9"/>
<path d="M6.7316 23.3032C7.03753 22.9983 7.27174 22.6301 7.41754 22.2251C7.56335 21.82 7.61714 21.388 7.57507 20.96L7.59039 20.9744C7.54745 20.4704 7.61603 19.9632 7.79135 19.4881C7.96667 19.0131 8.24451 18.5817 8.60547 18.2241C8.96642 17.8665 9.40171 17.5914 9.88107 17.4178C10.3604 17.2442 10.8722 17.1765 11.3807 17.2192L11.3654 17.2048C11.9733 17.2613 12.5841 17.1305 13.1143 16.8303C13.6445 16.5301 14.0684 16.0752 14.3282 15.5274C14.5879 14.9797 14.6709 14.3659 14.5658 13.7697C14.4607 13.1735 14.1726 12.624 13.7408 12.196C13.3091 11.7681 12.7546 11.4826 12.1531 11.3784C11.5516 11.2742 10.9323 11.3565 10.3797 11.6139C9.82708 11.8714 9.36805 12.2915 9.06521 12.817C8.76229 13.3425 8.63032 13.9479 8.68731 14.5504L8.67278 14.536C8.71572 15.0399 8.64711 15.547 8.47188 16.0219C8.29665 16.4968 8.01901 16.9281 7.65825 17.2857C7.2975 17.6433 6.86235 17.9185 6.3832 18.0921C5.90405 18.2658 5.39243 18.3338 4.88405 18.2912L4.89858 18.3056C4.40184 18.2615 3.90189 18.3424 3.44506 18.5407C2.98824 18.739 2.5893 19.0484 2.28525 19.4403C1.98119 19.832 1.78184 20.2936 1.70566 20.7821C1.62949 21.2707 1.67896 21.7704 1.84949 22.2348C2.02001 22.6994 2.30609 23.1137 2.68119 23.4395C3.05629 23.7653 3.50829 23.992 3.99531 24.0985C4.48231 24.205 4.98858 24.188 5.46719 24.049C5.94579 23.91 6.38125 23.6535 6.73321 23.3032H6.7316Z" fill="#B4B7C9"/>
<path d="M31.7344 15.324H34.1316V26.8864H31.7344V15.324Z" fill="#B4B7C9"/>
<path d="M35.4894 22.9273C35.4861 22.0964 35.7316 21.2831 36.1949 20.5906C36.6582 19.8982 37.3184 19.3575 38.092 19.0373C38.8656 18.717 39.7176 18.6314 40.5402 18.7915C41.3629 18.9516 42.1191 19.35 42.7131 19.9364C43.307 20.5227 43.7121 21.2706 43.8769 22.0854C44.0417 22.9001 43.9588 23.745 43.6388 24.513C43.3187 25.2809 42.7759 25.9375 42.0791 26.3994C41.3822 26.8614 40.5628 27.1081 39.7245 27.1081C39.168 27.1144 38.6158 27.0106 38.1002 26.803C37.5846 26.5953 37.116 26.2878 36.7217 25.8986C36.3273 25.5094 36.0153 25.0461 35.8038 24.5359C35.5921 24.0258 35.4853 23.4789 35.4894 22.9273ZM41.5623 22.9273C41.5523 22.5691 41.436 22.2218 41.228 21.9288C41.0199 21.6358 40.7293 21.4101 40.3926 21.2799C40.0558 21.1497 39.6878 21.1207 39.3345 21.1967C38.9812 21.2727 38.6584 21.4502 38.4063 21.707C38.1543 21.9638 37.9842 22.2886 37.9174 22.6408C37.8506 22.9929 37.8899 23.3567 38.0306 23.6868C38.1713 24.0169 38.407 24.2985 38.7082 24.4965C39.0095 24.6945 39.363 24.8001 39.7245 24.8001C39.972 24.8066 40.2183 24.7622 40.4477 24.6698C40.6771 24.5773 40.8847 24.4387 41.0574 24.2628C41.23 24.0868 41.3641 23.8773 41.4509 23.6474C41.5379 23.4176 41.5758 23.1724 41.5623 22.9273Z" fill="#B4B7C9"/>
<path d="M53.5137 18.9671V26.4871C53.5137 29.1479 51.42 30.2727 49.2947 30.2727C48.5465 30.3283 47.7973 30.1784 47.1292 29.8398C46.4612 29.5011 45.9001 28.9866 45.5076 28.3527L47.5529 27.1807C47.7179 27.5111 47.9808 27.7837 48.3063 27.962C48.6319 28.1403 49.0047 28.2158 49.3747 28.1783C49.6111 28.2108 49.852 28.1902 50.0794 28.1179C50.3067 28.0457 50.5147 27.9237 50.6881 27.7611C50.8615 27.5983 50.9957 27.3991 51.081 27.178C51.1661 26.957 51.2 26.7198 51.1802 26.4839V25.7599C50.8995 26.1003 50.5423 26.3708 50.137 26.5496C49.7317 26.7284 49.2899 26.8106 48.8468 26.7895C47.7925 26.7566 46.7925 26.3183 46.0585 25.5675C45.3245 24.8167 44.9141 23.8122 44.9141 22.7667C44.9141 21.7213 45.3245 20.7168 46.0585 19.966C46.7925 19.2151 47.7925 18.7769 48.8468 18.7439C49.2899 18.7229 49.7317 18.8051 50.137 18.9839C50.5423 19.1627 50.8995 19.4331 51.1802 19.7735V18.9655L53.5137 18.9671ZM51.181 22.7679C51.1972 22.3851 51.0973 22.0061 50.8943 21.6799C50.6913 21.3537 50.3944 21.0952 50.0419 20.9377C49.6894 20.7801 49.2975 20.7307 48.9164 20.7959C48.5354 20.861 48.1827 21.0376 47.9038 21.3031C47.6249 21.5686 47.4326 21.9107 47.3515 22.2854C47.2704 22.6601 47.3043 23.0503 47.449 23.4058C47.5935 23.7612 47.8421 24.0657 48.1627 24.2799C48.4833 24.4942 48.8613 24.6084 49.2479 24.6079C49.4998 24.6254 49.7526 24.5903 49.9899 24.5051C50.2273 24.4198 50.444 24.2861 50.6261 24.1128C50.8082 23.9395 50.9517 23.7303 51.0473 23.4986C51.1429 23.267 51.1885 23.0181 51.181 22.7679Z" fill="#B4B7C9"/>
<path d="M54.8712 22.9273C54.8679 22.0964 55.1134 21.2831 55.5767 20.5906C56.04 19.8982 56.7003 19.3575 57.4738 19.0373C58.2474 18.717 59.0994 18.6314 59.9221 18.7915C60.7447 18.9516 61.5009 19.35 62.0949 19.9364C62.6889 20.5227 63.0939 21.2706 63.2587 22.0854C63.4235 22.9001 63.3406 23.745 63.0206 24.513C62.7006 25.2809 62.1578 25.9375 61.461 26.3994C60.7641 26.8614 59.9447 27.1081 59.1063 27.1081C58.5498 27.1144 57.9976 27.0106 57.4821 26.803C56.9665 26.5953 56.4978 26.2878 56.1036 25.8986C55.7092 25.5094 55.3971 25.0461 55.1856 24.5359C54.974 24.0258 54.8671 23.4789 54.8712 22.9273ZM60.9441 22.9273C60.9341 22.5691 60.8178 22.2218 60.6098 21.9288C60.4017 21.6358 60.1112 21.4101 59.7744 21.2799C59.4376 21.1497 59.0696 21.1207 58.7164 21.1967C58.3631 21.2727 58.0402 21.4502 57.7881 21.707C57.5362 21.9638 57.366 22.2886 57.2992 22.6408C57.2323 22.9929 57.2717 23.3567 57.4124 23.6868C57.5531 24.0169 57.7888 24.2985 58.09 24.4965C58.3913 24.6945 58.7448 24.8001 59.1063 24.8001C59.3538 24.8066 59.6001 24.7622 59.8295 24.6698C60.059 24.5773 60.2666 24.4387 60.4392 24.2628C60.6119 24.0868 60.7459 23.8773 60.8328 23.6474C60.9197 23.4176 60.9576 23.1724 60.9441 22.9273Z" fill="#B4B7C9"/>
<path d="M64.459 16.8448C64.459 16.5628 64.5433 16.2872 64.7014 16.0528C64.8594 15.8183 65.0841 15.6356 65.3469 15.5277C65.6097 15.4198 65.8989 15.3916 66.178 15.4466C66.4569 15.5016 66.7133 15.6374 66.9144 15.8367C67.1155 16.0361 67.2525 16.2901 67.308 16.5667C67.3635 16.8432 67.335 17.1298 67.2262 17.3903C67.1173 17.6508 66.933 17.8735 66.6964 18.0302C66.4599 18.1868 66.1818 18.2704 65.8973 18.2704C65.5171 18.2666 65.1534 18.1153 64.8844 17.8487C64.6156 17.5822 64.4628 17.2217 64.459 16.8448ZM64.7011 18.9672H67.0992V26.8872H64.6979L64.7011 18.9672Z" fill="#B4B7C9"/>
<path d="M77.4504 22.9272C77.4781 23.4507 77.4012 23.9743 77.2239 24.4682C77.0467 24.962 76.7728 25.4163 76.4178 25.8048C76.0629 26.1933 75.6339 26.5085 75.1557 26.7322C74.6774 26.9558 74.1593 27.0835 73.631 27.108C73.1867 27.132 72.7427 27.0578 72.331 26.8907C71.9193 26.7235 71.5503 26.4676 71.2507 26.1416V30.0544H68.8535V18.9672H71.2507V19.7112C71.5504 19.3855 71.9195 19.1298 72.3312 18.9628C72.7429 18.7958 73.1868 18.7216 73.631 18.7456C74.1593 18.77 74.6776 18.8977 75.156 19.1214C75.6344 19.3451 76.0634 19.6603 76.4184 20.0489C76.7734 20.4375 77.0473 20.8919 77.2244 21.3859C77.4015 21.8799 77.4783 22.4037 77.4504 22.9272ZM75.0532 22.9272C75.0438 22.5566 74.9244 22.1969 74.7097 21.8931C74.4951 21.5895 74.1949 21.3552 73.8467 21.2199C73.4985 21.0844 73.1177 21.0538 72.7519 21.1319C72.3862 21.2099 72.0519 21.3931 71.7907 21.6585C71.5295 21.924 71.3532 22.2599 71.2837 22.6243C71.2142 22.9886 71.2546 23.3651 71.4 23.7067C71.5453 24.0484 71.7891 24.3399 72.1008 24.545C72.4125 24.7499 72.7782 24.8593 73.1524 24.8592C73.4092 24.8706 73.6655 24.8279 73.9046 24.7342C74.1436 24.6405 74.36 24.4977 74.5394 24.3153C74.7189 24.1328 74.8574 23.9149 74.946 23.6757C75.0345 23.4365 75.0711 23.1814 75.0532 22.9272Z" fill="#B4B7C9"/>
<path d="M84.8479 24.5104C84.8479 26.332 83.2505 27.108 81.5249 27.108C80.8275 27.1706 80.1275 27.0245 79.5149 26.6884C78.9024 26.3524 78.4057 25.842 78.0889 25.2232L80.1656 24.0512C80.2497 24.3372 80.4301 24.5861 80.6769 24.7561C80.9235 24.9262 81.2222 25.0072 81.5216 24.9856C82.0963 24.9856 82.3845 24.8112 82.3845 24.4952C82.3845 23.6232 78.4529 24.0832 78.4529 21.3432C78.4529 19.616 79.9235 18.7456 81.5854 18.7456C82.2101 18.726 82.8284 18.8729 83.3765 19.1709C83.9245 19.469 84.3822 19.9072 84.701 20.44L82.6557 21.5328C82.5661 21.3254 82.4168 21.1487 82.2263 21.0248C82.0358 20.9008 81.813 20.8352 81.5854 20.836C81.1697 20.836 80.9139 20.996 80.9139 21.2792C80.9171 22.1824 84.8479 21.58 84.8479 24.5104Z" fill="#B4B7C9"/>
<path d="M93.6044 18.9673V26.8873H91.2072V26.1425C90.9303 26.4711 90.5792 26.7301 90.1821 26.8981C89.785 27.0661 89.354 27.1383 88.9229 27.1089C87.3087 27.1089 85.9365 25.9689 85.9365 23.8289V18.9673H88.3337V23.4809C88.3136 23.6695 88.3353 23.8602 88.3975 24.0397C88.4588 24.2192 88.5597 24.3832 88.6921 24.5202C88.8245 24.6573 88.9851 24.7641 89.1635 24.8333C89.3411 24.9025 89.5323 24.9324 89.7236 24.9209C90.6026 24.9209 91.2096 24.4145 91.2096 23.2897V18.9697L93.6044 18.9673Z" fill="#B4B7C9"/>
<path d="M107.35 22.0239V26.8863H104.953V22.2295C104.953 21.4375 104.569 20.9311 103.803 20.9311C103.004 20.9311 102.556 21.4855 102.556 22.4199V26.8863H100.159V22.2295C100.159 21.4375 99.7758 20.9311 99.0082 20.9311C98.2091 20.9311 97.762 21.4855 97.762 22.4199V26.8863H95.3647V18.9663H97.762V19.6943C98.0106 19.3713 98.3366 19.1152 98.7103 18.9493C99.0849 18.7834 99.4949 18.7131 99.9033 18.7447C100.313 18.7248 100.722 18.8106 101.089 18.9937C101.455 19.1768 101.768 19.451 101.996 19.7895C102.262 19.4353 102.614 19.1537 103.019 18.971C103.424 18.7883 103.87 18.7104 104.314 18.7447C106.148 18.7455 107.35 20.0439 107.35 22.0239Z" fill="#B4B7C9"/>
<path d="M109.378 18.9182C110.36 18.9182 111.157 18.1288 111.157 17.155C111.157 16.1813 110.36 15.3918 109.378 15.3918C108.395 15.3918 107.599 16.1813 107.599 17.155C107.599 18.1288 108.395 18.9182 109.378 18.9182Z" fill="#B4B7C9"/>
</svg>
